<?xml version="1.0" encoding="utf-8"?>
<!-- Generator: Adobe Illustrator 15.0.0, SVG Export Plug-In . SVG Version: 6.00 Build 0)  -->
<!DOCTYPE svg PUBLIC "-//W3C//DTD SVG 1.0//EN" "http://www.w3.org/TR/2001/REC-SVG-20010904/DTD/svg10.dtd">
<svg version="1.0" id="Layer_1" xmlns="http://www.w3.org/2000/svg" xmlns:xlink="http://www.w3.org/1999/xlink" x="0px" y="0px"
	 width="552.756px" height="62.362px" viewBox="0 0 552.756 62.362" enable-background="new 0 0 552.756 62.362"
	 xml:space="preserve">
<g>
	<g>
		<path fill="#00AFFF" d="M5.704,53.284l0.168-1.316l5.292-2.394l0.392,1.05l-4.746,2.03l4.214,1.987l-0.616,1.036L5.704,53.284z"/>
		<path fill="#00AFFF" d="M21.216,54.866h-3.724l-1.036,2.422H15.07l4.312-9.646h1.68l1.946,9.646H21.65L21.216,54.866z
			 M17.954,53.788h3.066l-0.896-4.942h-0.056L17.954,53.788z"/>
		<path fill="#00AFFF" d="M24.127,53.452l0.154-1.092h3.962l-0.154,1.092H24.127z"/>
		<path fill="#00AFFF" d="M29.952,56.154h4.746l-0.28,1.134h-6.104l0.126-1.064l5.698-7.462h-4.284l0.14-1.12h5.754l-0.126,1.078
			L29.952,56.154z"/>
		<path fill="#00AFFF" d="M40.186,53.284l0.168-1.316l5.292-2.394l0.392,1.05l-4.746,2.03l4.214,1.987l-0.616,1.036L40.186,53.284z"
			/>
		<path fill="#00AFFF" d="M47.144,53.452l0.154-1.092h3.962l-0.154,1.092H47.144z"/>
		<path fill="#00AFFF" d="M52.813,53.452l0.154-1.092h3.962l-0.154,1.092H52.813z"/>
		<path fill="#00AFFF" d="M58.483,53.452l0.154-1.092H62.6l-0.154,1.092H58.483z"/>
		<path fill="#00AFFF" d="M64.153,53.452l0.154-1.092h3.962l-0.154,1.092H64.153z"/>
		<path fill="#00AFFF" d="M69.823,53.452l0.154-1.092h3.962l-0.154,1.092H69.823z"/>
		<path fill="#00AFFF" d="M75.494,53.452l0.154-1.092h3.962l-0.154,1.092H75.494z"/>
		<path fill="#00AFFF" d="M81.164,53.452l0.154-1.092h3.962l-0.154,1.092H81.164z"/>
		<path fill="#00AFFF" d="M86.833,53.452l0.154-1.092h3.962l-0.154,1.092H86.833z"/>
		<path fill="#00AFFF" d="M92.503,53.452l0.154-1.092h3.962l-0.154,1.092H92.503z"/>
		<path fill="#00AFFF" d="M98.173,53.452l0.154-1.092h3.962l-0.154,1.092H98.173z"/>
		<path fill="#00AFFF" d="M103.843,53.452l0.154-1.092h3.962l-0.154,1.092H103.843z"/>
		<path fill="#00AFFF" d="M109.513,53.452l0.154-1.092h3.962l-0.154,1.092H109.513z"/>
		<path fill="#00AFFF" d="M115.183,53.452l0.154-1.092h3.962l-0.154,1.092H115.183z"/>
		<path fill="#00AFFF" d="M120.854,53.452l0.154-1.092h3.962l-0.154,1.092H120.854z"/>
		<path fill="#00AFFF" d="M126.523,53.452l0.154-1.092h3.962l-0.154,1.092H126.523z"/>
		<path fill="#00AFFF" d="M132.193,53.452l0.154-1.092h3.962l-0.154,1.092H132.193z"/>
		<path fill="#00AFFF" d="M137.863,53.452l0.154-1.092h3.962l-0.154,1.092H137.863z"/>
		<path fill="#00AFFF" d="M143.533,53.452l0.154-1.092h3.962l-0.154,1.092H143.533z"/>
		<path fill="#00AFFF" d="M149.203,53.452l0.154-1.092h3.962l-0.154,1.092H149.203z"/>
		<path fill="#00AFFF" d="M154.873,53.452l0.154-1.092h3.962l-0.154,1.092H154.873z"/>
		<path fill="#00AFFF" d="M160.543,53.452l0.154-1.092h3.962l-0.154,1.092H160.543z"/>
		<path fill="#00AFFF" d="M166.213,53.452l0.154-1.092h3.962l-0.154,1.092H166.213z"/>
		<path fill="#00AFFF" d="M171.883,53.452l0.154-1.092h3.962l-0.154,1.092H171.883z"/>
		<path fill="#00AFFF" d="M177.553,53.452l0.154-1.092h3.962l-0.154,1.092H177.553z"/>
		<path fill="#00AFFF" d="M183.223,53.452l0.154-1.092h3.962l-0.154,1.092H183.223z"/>
		<path fill="#00AFFF" d="M188.893,53.452l0.154-1.092h3.962l-0.154,1.092H188.893z"/>
		<path fill="#00AFFF" d="M194.563,53.452l0.154-1.092h3.962l-0.154,1.092H194.563z"/>
		<path fill="#00AFFF" d="M200.233,53.452l0.154-1.092h3.962l-0.154,1.092H200.233z"/>
		<path fill="#00AFFF" d="M205.903,53.452l0.154-1.092h3.962l-0.154,1.092H205.903z"/>
		<path fill="#00AFFF" d="M211.573,53.452l0.154-1.092h3.962l-0.154,1.092H211.573z"/>
		<path fill="#00AFFF" d="M217.243,53.452l0.154-1.092h3.962l-0.154,1.092H217.243z"/>
		<path fill="#00AFFF" d="M222.913,53.452l0.154-1.092h3.962l-0.154,1.092H222.913z"/>
		<path fill="#00AFFF" d="M236.003,56.307c0.411,0,0.772-0.064,1.085-0.195s0.66-0.346,1.043-0.645l0.644,0.91
			c-0.354,0.317-0.772,0.576-1.253,0.777c-0.481,0.2-1.048,0.301-1.701,0.301c-0.513,0-0.985-0.084-1.414-0.252
			s-0.798-0.422-1.106-0.763c-0.308-0.341-0.548-0.766-0.721-1.274c-0.173-0.509-0.259-1.108-0.259-1.799
			c0-0.915,0.124-1.736,0.371-2.464c0.247-0.729,0.579-1.347,0.994-1.855c0.415-0.509,0.898-0.897,1.449-1.169
			c0.551-0.271,1.129-0.406,1.736-0.406c0.588,0,1.094,0.084,1.519,0.253c0.424,0.168,0.814,0.429,1.169,0.783l-0.798,0.784
			c-0.298-0.261-0.593-0.445-0.882-0.553c-0.29-0.107-0.635-0.161-1.036-0.161c-0.392,0-0.774,0.096-1.148,0.287
			c-0.373,0.191-0.705,0.482-0.994,0.875c-0.29,0.392-0.523,0.889-0.7,1.491c-0.177,0.602-0.266,1.313-0.266,2.135
			c0,0.522,0.051,0.971,0.154,1.344c0.103,0.374,0.252,0.679,0.448,0.917c0.196,0.238,0.434,0.411,0.714,0.519
			C235.331,56.254,235.648,56.307,236.003,56.307z"/>
		<path fill="#00AFFF" d="M240.007,54.362c0-0.579,0.077-1.146,0.231-1.701s0.387-1.05,0.7-1.484
			c0.313-0.434,0.705-0.781,1.176-1.043c0.471-0.261,1.029-0.392,1.673-0.392c0.915,0,1.622,0.275,2.121,0.826
			s0.749,1.302,0.749,2.254c0,0.672-0.089,1.29-0.266,1.854c-0.177,0.565-0.432,1.055-0.763,1.471
			c-0.332,0.415-0.728,0.737-1.19,0.966c-0.462,0.229-0.978,0.343-1.547,0.343c-0.915,0-1.624-0.275-2.128-0.826
			S240.007,55.323,240.007,54.362z M242.933,56.419c0.42,0,0.777-0.107,1.071-0.322c0.294-0.214,0.537-0.496,0.728-0.847
			c0.191-0.35,0.331-0.744,0.42-1.183c0.088-0.438,0.133-0.887,0.133-1.345c0-1.297-0.513-1.945-1.54-1.945
			c-0.327,0-0.635,0.074-0.924,0.224c-0.29,0.149-0.542,0.376-0.756,0.679c-0.215,0.304-0.383,0.688-0.504,1.155
			c-0.122,0.467-0.182,1.013-0.182,1.638c0,0.673,0.128,1.165,0.385,1.478S242.41,56.419,242.933,56.419z"/>
		<path fill="#00AFFF" d="M249.429,57.288h-1.288l1.036-7.378h1.106l-0.14,1.568c0.42-0.607,0.847-1.048,1.281-1.323
			s0.884-0.413,1.351-0.413c0.513,0,0.924,0.149,1.232,0.448s0.462,0.761,0.462,1.386c0,0.178-0.014,0.364-0.042,0.56l-0.714,5.152
			h-1.288l0.658-4.872c0.019-0.131,0.033-0.25,0.042-0.356c0.009-0.107,0.014-0.208,0.014-0.302c0-0.382-0.07-0.637-0.21-0.763
			s-0.341-0.189-0.602-0.189c-0.327,0-0.684,0.157-1.071,0.47c-0.388,0.313-0.796,0.86-1.225,1.645L249.429,57.288z"/>
		<path fill="#00AFFF" d="M260.041,56.952c-0.523,0.336-1.087,0.504-1.694,0.504c-0.569,0-1.006-0.146-1.309-0.441
			c-0.303-0.294-0.455-0.734-0.455-1.322c0-0.168,0.014-0.359,0.042-0.574l0.588-4.229h-1.176l0.14-0.979h1.19l0.504-1.708
			l1.022-0.112l-0.252,1.82h1.862l-0.294,0.979H258.5l-0.616,4.41c-0.01,0.065-0.017,0.126-0.021,0.183
			c-0.005,0.056-0.007,0.107-0.007,0.153c0,0.271,0.061,0.46,0.182,0.567c0.121,0.107,0.303,0.161,0.546,0.161
			c0.28,0,0.616-0.107,1.008-0.322L260.041,56.952z"/>
		<path fill="#00AFFF" d="M261.216,57.288l1.036-7.378h1.106l-0.182,1.946c0.327-0.757,0.691-1.298,1.092-1.624
			c0.401-0.327,0.802-0.49,1.204-0.49c0.261,0,0.5,0.028,0.714,0.084l-0.434,1.372c-0.215-0.057-0.416-0.084-0.602-0.084
			c-0.383,0.009-0.758,0.215-1.127,0.616s-0.712,1.077-1.029,2.029l-0.49,3.528H261.216z"/>
		<path fill="#00AFFF" d="M266.327,54.362c0-0.579,0.077-1.146,0.231-1.701c0.154-0.556,0.387-1.05,0.7-1.484
			c0.313-0.434,0.705-0.781,1.176-1.043c0.471-0.261,1.029-0.392,1.673-0.392c0.915,0,1.622,0.275,2.121,0.826
			c0.499,0.551,0.749,1.302,0.749,2.254c0,0.672-0.089,1.29-0.266,1.854c-0.177,0.565-0.432,1.055-0.763,1.471
			c-0.331,0.415-0.728,0.737-1.19,0.966s-0.978,0.343-1.547,0.343c-0.915,0-1.624-0.275-2.128-0.826S266.327,55.323,266.327,54.362z
			 M269.252,56.419c0.42,0,0.777-0.107,1.071-0.322c0.294-0.214,0.537-0.496,0.728-0.847c0.191-0.35,0.332-0.744,0.42-1.183
			c0.088-0.438,0.133-0.887,0.133-1.345c0-1.297-0.514-1.945-1.54-1.945c-0.327,0-0.635,0.074-0.924,0.224
			c-0.29,0.149-0.542,0.376-0.756,0.679c-0.215,0.304-0.383,0.688-0.504,1.155s-0.182,1.013-0.182,1.638
			c0,0.673,0.128,1.165,0.385,1.478C268.34,56.263,268.729,56.419,269.252,56.419z"/>
		<path fill="#00AFFF" d="M276.924,57.204c-0.187,0.084-0.364,0.147-0.532,0.189s-0.35,0.063-0.546,0.063
			c-0.411,0-0.737-0.117-0.98-0.35c-0.243-0.233-0.364-0.579-0.364-1.036c0-0.065,0.002-0.128,0.007-0.189
			c0.005-0.061,0.012-0.128,0.021-0.203l1.232-8.735l1.316-0.154l-1.274,9.002c-0.009,0.047-0.014,0.089-0.014,0.126V56
			c0,0.14,0.032,0.238,0.098,0.294s0.164,0.084,0.294,0.084c0.158,0,0.308-0.028,0.448-0.084L276.924,57.204z"/>
		<path fill="#00AFFF" d="M280.354,56.419c0.448,0,0.81-0.104,1.085-0.314s0.413-0.488,0.413-0.833c0-0.149-0.023-0.287-0.069-0.413
			c-0.047-0.126-0.129-0.24-0.245-0.344c-0.117-0.103-0.28-0.202-0.49-0.301c-0.21-0.098-0.474-0.203-0.791-0.314
			c-0.672-0.225-1.164-0.514-1.478-0.868c-0.313-0.354-0.469-0.747-0.469-1.176c0-0.635,0.235-1.146,0.707-1.533
			s1.142-0.581,2.009-0.581c0.514,0,0.959,0.067,1.337,0.203c0.379,0.135,0.73,0.338,1.058,0.608l-0.645,0.868
			c-0.279-0.224-0.563-0.39-0.847-0.497c-0.285-0.106-0.604-0.161-0.959-0.161c-0.42,0-0.737,0.089-0.952,0.267
			c-0.215,0.177-0.322,0.415-0.322,0.714c0,0.131,0.019,0.245,0.057,0.343c0.037,0.099,0.111,0.194,0.224,0.287
			c0.112,0.094,0.271,0.187,0.477,0.28c0.205,0.093,0.476,0.2,0.812,0.322c0.672,0.233,1.169,0.522,1.491,0.867
			c0.322,0.346,0.482,0.779,0.482,1.303c0,0.699-0.254,1.26-0.763,1.68s-1.248,0.63-2.219,0.63c-0.28,0-0.556-0.03-0.826-0.091
			s-0.525-0.141-0.763-0.238c-0.238-0.098-0.455-0.21-0.651-0.336s-0.364-0.259-0.504-0.399l0.771-0.812
			c0.271,0.252,0.585,0.455,0.944,0.609C279.586,56.342,279.962,56.419,280.354,56.419z"/>
		<path fill="#00AFFF" d="M288.558,53.452l0.154-1.092h3.962l-0.154,1.092H288.558z"/>
		<path fill="#00AFFF" d="M294.228,53.452l0.154-1.092h3.962l-0.154,1.092H294.228z"/>
		<path fill="#00AFFF" d="M299.898,53.452l0.154-1.092h3.962l-0.154,1.092H299.898z"/>
		<path fill="#00AFFF" d="M305.568,53.452l0.154-1.092h3.962l-0.154,1.092H305.568z"/>
		<path fill="#00AFFF" d="M311.238,53.452l0.154-1.092h3.962l-0.154,1.092H311.238z"/>
		<path fill="#00AFFF" d="M316.908,53.452l0.154-1.092h3.962l-0.154,1.092H316.908z"/>
		<path fill="#00AFFF" d="M322.578,53.452l0.154-1.092h3.962l-0.154,1.092H322.578z"/>
		<path fill="#00AFFF" d="M328.248,53.452l0.154-1.092h3.962l-0.153,1.092H328.248z"/>
		<path fill="#00AFFF" d="M333.917,53.452l0.154-1.092h3.962l-0.153,1.092H333.917z"/>
		<path fill="#00AFFF" d="M339.588,53.452l0.153-1.092h3.962l-0.153,1.092H339.588z"/>
		<path fill="#00AFFF" d="M345.258,53.452l0.153-1.092h3.962l-0.153,1.092H345.258z"/>
		<path fill="#00AFFF" d="M350.928,53.452l0.153-1.092h3.962l-0.153,1.092H350.928z"/>
		<path fill="#00AFFF" d="M356.598,53.452l0.153-1.092h3.963l-0.154,1.092H356.598z"/>
		<path fill="#00AFFF" d="M362.268,53.452l0.153-1.092h3.963l-0.154,1.092H362.268z"/>
		<path fill="#00AFFF" d="M367.938,53.452l0.154-1.092h3.962l-0.154,1.092H367.938z"/>
		<path fill="#00AFFF" d="M373.608,53.452l0.154-1.092h3.962l-0.154,1.092H373.608z"/>
		<path fill="#00AFFF" d="M379.278,53.452l0.154-1.092h3.962l-0.154,1.092H379.278z"/>
		<path fill="#00AFFF" d="M384.948,53.452l0.154-1.092h3.962l-0.154,1.092H384.948z"/>
		<path fill="#00AFFF" d="M390.618,53.452l0.154-1.092h3.962l-0.154,1.092H390.618z"/>
		<path fill="#00AFFF" d="M396.288,53.452l0.154-1.092h3.962l-0.154,1.092H396.288z"/>
		<path fill="#00AFFF" d="M401.958,53.452l0.154-1.092h3.962l-0.154,1.092H401.958z"/>
		<path fill="#00AFFF" d="M407.627,53.452l0.154-1.092h3.962l-0.154,1.092H407.627z"/>
		<path fill="#00AFFF" d="M413.297,53.452l0.154-1.092h3.962l-0.154,1.092H413.297z"/>
		<path fill="#00AFFF" d="M418.967,53.452l0.154-1.092h3.962l-0.154,1.092H418.967z"/>
		<path fill="#00AFFF" d="M424.637,53.452l0.154-1.092h3.962l-0.153,1.092H424.637z"/>
		<path fill="#00AFFF" d="M430.308,53.452l0.153-1.092h3.962l-0.153,1.092H430.308z"/>
		<path fill="#00AFFF" d="M435.978,53.452l0.153-1.092h3.962l-0.153,1.092H435.978z"/>
		<path fill="#00AFFF" d="M441.648,53.452l0.153-1.092h3.962l-0.153,1.092H441.648z"/>
		<path fill="#00AFFF" d="M447.318,53.452l0.153-1.092h3.963l-0.154,1.092H447.318z"/>
		<path fill="#00AFFF" d="M452.988,53.452l0.153-1.092h3.963l-0.154,1.092H452.988z"/>
		<path fill="#00AFFF" d="M458.658,53.452l0.154-1.092h3.962l-0.154,1.092H458.658z"/>
		<path fill="#00AFFF" d="M464.328,53.452l0.154-1.092h3.962l-0.154,1.092H464.328z"/>
		<path fill="#00AFFF" d="M475.471,51.967l-0.168,1.316l-5.292,2.394l-0.392-1.05l4.746-2.03l-4.214-1.987l0.615-1.036
			L475.471,51.967z"/>
		<path fill="#00AFFF" d="M487.778,54.095c-0.065,0.542-0.198,1.021-0.399,1.436s-0.457,0.766-0.77,1.05
			c-0.313,0.285-0.675,0.502-1.085,0.651c-0.411,0.148-0.859,0.224-1.345,0.224c-1.017,0-1.799-0.245-2.345-0.735
			c-0.546-0.489-0.819-1.206-0.819-2.148c0-0.215,0.015-0.435,0.042-0.658l0.771-6.272h1.33l-0.784,6.259
			c-0.028,0.242-0.042,0.457-0.042,0.644c0,0.645,0.154,1.104,0.462,1.379s0.766,0.413,1.372,0.413c0.644,0,1.159-0.188,1.547-0.566
			c0.388-0.379,0.623-0.917,0.707-1.617l0.813-6.511h1.344L487.778,54.095z"/>
		<path fill="#00AFFF" d="M491.866,51.478c0.168-0.28,0.354-0.527,0.56-0.742s0.42-0.396,0.645-0.546
			c0.224-0.149,0.45-0.262,0.679-0.336c0.229-0.075,0.45-0.112,0.665-0.112c0.616,0,1.117,0.212,1.505,0.637
			c0.387,0.425,0.581,1.085,0.581,1.981c0,0.784-0.091,1.491-0.273,2.121c-0.182,0.63-0.427,1.164-0.734,1.603
			c-0.309,0.438-0.663,0.777-1.064,1.015c-0.401,0.238-0.821,0.357-1.26,0.357c-0.756,0-1.4-0.303-1.932-0.91l-0.504,3.57
			l-1.303,0.154l1.456-10.36h1.106L491.866,51.478z M494.078,50.763c-0.327,0-0.695,0.166-1.106,0.497
			c-0.41,0.332-0.816,0.866-1.218,1.604l-0.378,2.702c0.224,0.308,0.467,0.531,0.728,0.672c0.262,0.14,0.551,0.21,0.868,0.21
			c0.252,0,0.507-0.091,0.764-0.273c0.256-0.182,0.484-0.445,0.686-0.791c0.2-0.345,0.366-0.77,0.497-1.273s0.196-1.078,0.196-1.723
			c0-0.289-0.028-0.536-0.084-0.741c-0.057-0.206-0.134-0.374-0.231-0.505c-0.098-0.13-0.21-0.226-0.336-0.286
			S494.208,50.763,494.078,50.763z"/>
		<path fill="#00AFFF" d="M498.095,53.452l0.154-1.092h3.962l-0.154,1.092H498.095z"/>
		<path fill="#00AFFF" d="M511.437,51.478c0,0.924-0.116,1.745-0.35,2.464s-0.567,1.325-1.001,1.819
			c-0.434,0.495-0.959,0.873-1.575,1.135c-0.616,0.261-1.307,0.392-2.072,0.392h-2.59l1.176-9.646h2.282
			c0.625,0,1.192,0.082,1.701,0.245c0.509,0.164,0.942,0.406,1.302,0.729s0.638,0.724,0.833,1.204
			C511.339,50.299,511.437,50.852,511.437,51.478z M506.509,56.238c0.504,0,0.971-0.096,1.4-0.287
			c0.429-0.191,0.803-0.483,1.12-0.875c0.316-0.392,0.564-0.882,0.741-1.47c0.178-0.588,0.267-1.279,0.267-2.072
			c0-1.008-0.25-1.731-0.749-2.17c-0.5-0.438-1.192-0.658-2.079-0.658h-0.98l-0.924,7.532H506.509z"/>
		<path fill="#00AFFF" d="M512.697,54.362c0-0.579,0.077-1.146,0.231-1.701s0.388-1.05,0.7-1.484
			c0.313-0.434,0.704-0.781,1.176-1.043c0.472-0.261,1.029-0.392,1.673-0.392c0.915,0,1.622,0.275,2.121,0.826
			s0.749,1.302,0.749,2.254c0,0.672-0.089,1.29-0.266,1.854c-0.178,0.565-0.432,1.055-0.764,1.471
			c-0.331,0.415-0.728,0.737-1.189,0.966s-0.978,0.343-1.547,0.343c-0.915,0-1.624-0.275-2.128-0.826S512.697,55.323,512.697,54.362
			z M515.624,56.419c0.42,0,0.776-0.107,1.07-0.322c0.294-0.214,0.537-0.496,0.729-0.847c0.191-0.35,0.331-0.744,0.42-1.183
			s0.133-0.887,0.133-1.345c0-1.297-0.514-1.945-1.54-1.945c-0.326,0-0.635,0.074-0.924,0.224s-0.541,0.376-0.756,0.679
			c-0.215,0.304-0.383,0.688-0.504,1.155c-0.122,0.467-0.183,1.013-0.183,1.638c0,0.673,0.129,1.165,0.386,1.478
			C514.71,56.263,515.1,56.419,515.624,56.419z"/>
		<path fill="#00AFFF" d="M527.607,57.288h-1.75l-0.476-6.076h-0.056l-2.227,6.076h-1.708l-0.672-7.378h1.246l0.406,6.355h0.056
			l2.395-6.355h1.441l0.532,6.328h0.056l2.212-6.328h1.274L527.607,57.288z"/>
		<path fill="#00AFFF" d="M532.059,57.288h-1.288l1.036-7.378h1.106l-0.141,1.568c0.42-0.607,0.848-1.048,1.281-1.323
			c0.435-0.275,0.885-0.413,1.352-0.413c0.513,0,0.924,0.149,1.231,0.448c0.309,0.299,0.462,0.761,0.462,1.386
			c0,0.178-0.014,0.364-0.042,0.56l-0.714,5.152h-1.288l0.658-4.872c0.019-0.131,0.032-0.25,0.042-0.356
			c0.009-0.107,0.014-0.208,0.014-0.302c0-0.382-0.069-0.637-0.21-0.763c-0.14-0.126-0.341-0.189-0.602-0.189
			c-0.327,0-0.684,0.157-1.071,0.47s-0.796,0.86-1.225,1.645L532.059,57.288z"/>
		<path fill="#00AFFF" d="M548.131,51.967l-0.168,1.316l-5.292,2.394l-0.393-1.05l4.746-2.03l-4.214-1.987l0.616-1.036
			L548.131,51.967z"/>
	</g>
</g>
<g>
	<g>
		<path fill="#9BD700" d="M107.668,15.705c0,3.206-1.611,5.531-4.834,6.974c-2.35,1.058-5.354,1.586-9.013,1.586H73.403v9.416
			c0,1.394-0.697,2.09-2.09,2.09h-1.737c-1.376,0-2.064-0.696-2.064-2.09V5.559c0-1.376,0.688-2.065,2.064-2.065h24.522
			c3.155,0,5.958,0.454,8.409,1.36c3.441,1.275,5.161,3.223,5.161,5.841V15.705z M101.828,15.504v-4.406
			c0-1.863-2.56-2.794-7.679-2.794H73.403v11.128h20.771c2.4,0,4.179-0.227,5.337-0.68
			C101.055,18.147,101.828,17.065,101.828,15.504z"/>
		<path fill="#9BD700" d="M120.861,9.008c0,0.906-0.386,1.628-1.158,2.165c-0.671,0.487-1.477,0.73-2.417,0.73
			s-1.771-0.243-2.493-0.73c-0.806-0.537-1.208-1.259-1.208-2.165c0-0.907,0.403-1.628,1.208-2.166
			c0.705-0.47,1.536-0.705,2.493-0.705s1.771,0.235,2.442,0.705C120.483,7.363,120.861,8.085,120.861,9.008z M120.081,33.681
			c0,1.394-0.696,2.09-2.089,2.09h-1.385c-1.393,0-2.09-0.696-2.09-2.09V14.472c0-1.376,0.697-2.064,2.09-2.064h1.385
			c1.393,0,2.089,0.688,2.089,2.064V33.681z"/>
		<path fill="#9BD700" d="M161.673,33.681c0,1.394-0.697,2.09-2.09,2.09h-1.46c-1.393,0-2.089-0.696-2.089-2.09V17.518
			c0-0.99-0.613-1.662-1.838-2.014c-0.99-0.286-2.736-0.428-5.237-0.428h-9.114c-2.602,0-4.389,0.134-5.363,0.403
			c-1.259,0.353-1.888,1.041-1.888,2.064v16.138c0,1.394-0.688,2.09-2.064,2.09h-1.46c-1.376,0-2.064-0.696-2.064-2.09V17.593
			c0-4.817,4.272-7.226,12.815-7.226h9.14c8.476,0,12.714,2.392,12.714,7.175V33.681z"/>
		<path fill="#9BD700" d="M203.668,34.941c0,2.92-1.846,5.061-5.539,6.42c-2.585,0.956-5.623,1.435-9.114,1.435h-2.342
			c-1.393,0-2.089-0.688-2.089-2.064v-0.554c0-1.376,0.696-2.064,2.089-2.064h4.054c0.99,0,2.375-0.269,4.154-0.806
			c2.014-0.604,3.021-1.184,3.021-1.737H182.57c-3.592,0-6.563-0.453-8.913-1.359c-3.407-1.31-5.111-3.475-5.111-6.496v-9.417
			c0-2.668,1.376-4.716,4.129-6.143c2.299-1.192,5.103-1.788,8.409-1.788h8.233c3.525,0,6.538,0.487,9.039,1.46
			c3.542,1.376,5.313,3.55,5.313,6.521V34.941z M198.003,30.912V18.575c0-1.275-1.049-2.232-3.147-2.87
			c-1.443-0.436-2.988-0.654-4.632-0.654h-8.837c-2.048,0-3.533,0.109-4.456,0.327c-1.863,0.437-2.795,1.368-2.795,2.794v9.467
			c0,2.182,2.77,3.273,8.309,3.273H198.003z"/>
		<path fill="#9BD700" d="M245.236,27.891c0,2.937-1.494,5.094-4.481,6.471c-2.031,0.939-4.675,1.409-7.931,1.409h-9.29
			c-5.992,0-9.962-1.485-11.909-4.456c-0.705-1.074-1.058-2.215-1.058-3.424v-9.366c0-2.064,0.965-3.852,2.896-5.363
			c2.367-1.863,5.715-2.794,10.045-2.794h9.315c8.275,0,12.413,2.702,12.413,8.107V27.891z M239.546,27.891v-9.794
			c0-2.014-2.292-3.021-6.874-3.021h-9.089c-1.645,0-3.13,0.202-4.457,0.604c-1.98,0.604-2.971,1.552-2.971,2.845v9.366
			c0,1.242,1.007,2.131,3.021,2.668c1.31,0.353,2.787,0.529,4.431,0.529h9.089c1.443,0,2.811-0.202,4.104-0.604
			C238.631,29.914,239.546,29.049,239.546,27.891z"/>
	</g>
	<g>
		<path fill="#9BD700" d="M320.289,15.705c0,3.206-1.611,5.531-4.834,6.974c-2.351,1.058-5.354,1.586-9.014,1.586h-20.419v9.416
			c0,1.394-0.696,2.09-2.089,2.09h-1.737c-1.377,0-2.064-0.696-2.064-2.09V5.559c0-1.376,0.688-2.065,2.064-2.065h24.522
			c3.155,0,5.958,0.454,8.409,1.36c3.44,1.275,5.161,3.223,5.161,5.841V15.705z M314.447,15.504v-4.406
			c0-1.863-2.56-2.794-7.679-2.794h-20.746v11.128h20.771c2.4,0,4.18-0.227,5.338-0.68
			C313.675,18.147,314.447,17.065,314.447,15.504z"/>
	</g>
	<g>
		<path fill="#9BD700" d="M360.194,27.891c0,2.937-1.494,5.094-4.481,6.471c-2.031,0.939-4.675,1.409-7.931,1.409h-9.29
			c-5.992,0-9.962-1.485-11.909-4.456c-0.705-1.074-1.058-2.215-1.058-3.424v-9.366c0-2.064,0.965-3.852,2.896-5.363
			c2.366-1.863,5.715-2.794,10.046-2.794h9.315c8.274,0,12.412,2.702,12.412,8.107V27.891z M354.503,27.891v-9.794
			c0-2.014-2.291-3.021-6.873-3.021h-9.089c-1.645,0-3.13,0.202-4.456,0.604c-1.98,0.604-2.971,1.552-2.971,2.845v9.366
			c0,1.242,1.007,2.131,3.021,2.668c1.31,0.353,2.787,0.529,4.432,0.529h9.089c1.443,0,2.812-0.202,4.104-0.604
			C353.589,29.914,354.503,29.049,354.503,27.891z"/>
		<path fill="#9BD700" d="M401.736,33.681c0,1.394-0.696,2.09-2.09,2.09h-1.46c-1.394,0-2.09-0.696-2.09-2.09V17.518
			c0-0.99-0.612-1.662-1.838-2.014c-0.99-0.286-2.736-0.428-5.236-0.428h-9.114c-2.602,0-4.39,0.134-5.363,0.403
			c-1.259,0.353-1.888,1.041-1.888,2.064v16.138c0,1.394-0.688,2.09-2.064,2.09h-1.461c-1.376,0-2.064-0.696-2.064-2.09V17.593
			c0-4.817,4.271-7.226,12.815-7.226h9.14c8.476,0,12.714,2.392,12.714,7.175V33.681z"/>
		<path fill="#9BD700" d="M443.731,34.941c0,2.92-1.846,5.061-5.539,6.42c-2.585,0.956-5.623,1.435-9.114,1.435h-2.341
			c-1.394,0-2.09-0.688-2.09-2.064v-0.554c0-1.376,0.696-2.064,2.09-2.064h4.054c0.99,0,2.375-0.269,4.154-0.806
			c2.014-0.604,3.021-1.184,3.021-1.737h-15.333c-3.592,0-6.563-0.453-8.912-1.359c-3.407-1.31-5.111-3.475-5.111-6.496v-9.417
			c0-2.668,1.377-4.716,4.129-6.143c2.3-1.192,5.103-1.788,8.409-1.788h8.233c3.524,0,6.537,0.487,9.038,1.46
			c3.542,1.376,5.313,3.55,5.313,6.521V34.941z M438.066,30.912V18.575c0-1.275-1.049-2.232-3.146-2.87
			c-1.443-0.436-2.988-0.654-4.633-0.654h-8.837c-2.048,0-3.533,0.109-4.457,0.327c-1.862,0.437-2.794,1.368-2.794,2.794v9.467
			c0,2.182,2.77,3.273,8.309,3.273H438.066z"/>
		<path fill="#9BD700" d="M485.298,27.891c0,2.937-1.494,5.094-4.481,6.471c-2.031,0.939-4.675,1.409-7.931,1.409h-9.29
			c-5.992,0-9.962-1.485-11.909-4.456c-0.705-1.074-1.058-2.215-1.058-3.424v-9.366c0-2.064,0.966-3.852,2.896-5.363
			c2.367-1.863,5.715-2.794,10.046-2.794h9.315c8.274,0,12.412,2.702,12.412,8.107V27.891z M479.608,27.891v-9.794
			c0-2.014-2.291-3.021-6.873-3.021h-9.089c-1.645,0-3.13,0.202-4.456,0.604c-1.98,0.604-2.971,1.552-2.971,2.845v9.366
			c0,1.242,1.007,2.131,3.021,2.668c1.31,0.353,2.787,0.529,4.432,0.529h9.089c1.443,0,2.812-0.202,4.104-0.604
			C478.694,29.914,479.608,29.049,479.608,27.891z"/>
	</g>
</g>
</svg>
